<?xml version="1.0" encoding="utf-8"?>
<!-- Generator: Adobe Illustrator 16.0.3, SVG Export Plug-In . SVG Version: 6.00 Build 0)  -->
<!DOCTYPE svg PUBLIC "-//W3C//DTD SVG 1.1//EN" "http://www.w3.org/Graphics/SVG/1.1/DTD/svg11.dtd">
<svg version="1.1" id="Ebene_1" xmlns="http://www.w3.org/2000/svg" xmlns:xlink="http://www.w3.org/1999/xlink" x="0px" y="0px"
	 width="315px" height="315px" viewBox="0 0 315 315" enable-background="new 0 0 315 315" xml:space="preserve">
<circle fill-rule="evenodd" clip-rule="evenodd" fill="#97BF0D" stroke="#008A2E" stroke-width="6" stroke-miterlimit="10" cx="160.878" cy="156.194" r="130.965"/>
<g>
	<g>
		<path fill-rule="evenodd" clip-rule="evenodd" fill="#FFFFFF" stroke="#786855" stroke-width="6" stroke-miterlimit="10" d="
			M196.127,142.651c3.813,1.686,5.563,1.271,8.061-2.099c3.654-4.926,5.008-10.552,4.166-16.549
			c-0.721-5.141-3.008-6.293-7.859-4.342c1.172-6.011,2.492-11.883,3.42-17.817c0.775-4.962,1.357-9.989,1.473-15
			c0.043-1.84-1.008-4.344-2.418-5.454c-3.531-2.779-7.543-4.952-11.387-7.323c-0.82-0.504-1.756-0.817-2.932-1.352
			c2.16-1.609,4.73-2.571,3.945-5.851c-3.305,2.406-6.588,1.079-9.869,0.25c-4.08-1.03-8.148-2.113-12.248-3.058
			c-6.871-1.584-12.481,0.696-17.119,5.793c-0.88,0.968-1.8,1.9-2.55,2.69c-0.402,0-0.516,0.033-0.596-0.005
			c-4.506-2.114-9.072-4.246-14.129-2.039c-6.96,3.038-13.461,7.042-16.727,14.107c-1.441,3.117-1.233,7.303-0.837,10.9
			c0.856,7.773,2.317,15.48,3.528,23.198c-4.778,0.009-6.379,1.15-6.819,6.109c-0.534,6.009,0.984,11.606,4.87,16.384
			c1.727,2.123,3.815,3.303,6.032,2.253c3.126,6.182,5.855,12.455,9.391,18.235c2.055,3.36,5.25,6.102,8.235,8.783
			c1.427,1.282,1.865,2.214,1.36,4.057c-2.688,9.807-8.873,16.864-17.423,21.875c-7.199,4.218-14.697,7.923-21.98,12.001
			c-7.092,3.973-13.131,9.002-15.604,17.193c-0.462,1.531-0.851,3.108-1.038,4.693c-0.594,5.027,0.42,7.628,5.229,9.281
			c7.092,2.44,14.366,4.674,21.746,5.898c18.975,3.146,38.174,3.846,57.364,3.072c17.492-0.706,35.047-1.539,51.891-7.128
			c9.527-3.161,11.158-6.526,8.207-16.122c-2.607-8.483-9.195-13.244-16.404-17.286c-6.848-3.839-13.988-7.159-20.785-11.083
			c-8.928-5.155-15.732-12.259-18.326-22.596c-0.27-1.075,0.158-2.956,0.953-3.574c8.41-6.539,13.01-15.455,16.246-25.277
			C195.502,144.534,195.814,143.598,196.127,142.651z"/>
	</g>
</g>
</svg>
